:FULLY-SPECIFIED
:FORCE-ALL-JOINTS-BE-3DOF
:DEGREES
102
root 7.30973 16.7241 -26.8018 7.76291 7.54398 -5.47846
lfemur -33.7243 4.13123 -10.4203
ltibia 43.0885 0 0
lfoot -18.3469 0.29009 0
ltoes 21.1421 0 0
rfemur -20.0869 -3.66287 13.1939
rtibia 51.7477 0 0
rfoot -4.45563 -1.95061 0
rtoes 4.7319 0 0
lowerback -1.49441 3.03516 2.32111
upperback -1.68482 4.05348 1.29192
thorax -0.809071 2.02102 0.0603053
lowerneck -10.3399 -4.36344 2.97904
upperneck -3.53574 -6.09152 1.1516
head 0.560828 -3.05076 -0.356134
lclavicle -2.33704e-15 8.64719e-15 0
lhumerus -44.883 -8.69803 92.5074
lradius 46.4582 0 0
lwrist 11.7675 0 0
lhand -2.76768 5.17537 0
lfingers 7.12502 0 0
lthumb 22.9133 33.586 0
rclavicle -2.33704e-15 8.64719e-15 0
rhumerus -39.5678 3.03373 -82.4483
rradius 45.8679 0 0
rwrist 6.66658 0 0
rhand -24.1287 -18.5686 0
rfingers 7.12502 0 0
rthumb 2.36444 -48.7163 0
103
root 7.36495 16.7259 -26.7633 6.60595 8.45583 -5.01085
lfemur -31.8161 2.85806 -10.8815
ltibia 42.0315 0 0
lfoot -18.1679 -1.29598 0
ltoes 21.8863 0 0
rfemur -24.0811 -3.81861 10.8074
rtibia 59.0261 0 0
rfoot 2.86731 2.65286 0
rtoes 7.53099 0 0
lowerback -0.630804 2.67134 1.82389
upperback -1.42817 3.5748 1.43717
thorax -1.05928 1.78584 0.465589
lowerneck -10.3908 -4.45649 2.82159
upperneck -2.95601 -6.21097 1.08965
head 0.756698 -3.10228 -0.365569
lclavicle -3.85318e-15 6.568e-15 0
lhumerus -45.2305 -9.0889 92.8101
lradius 46.9824 0 0
lwrist 12.4163 0 0
lhand -0.64393 5.9151 0
lfingers 7.12502 0 0
lthumb 24.947 34.0331 0
rclavicle -3.85318e-15 6.568e-15 0
rhumerus -40.1925 2.70562 -79.9459
rradius 46.7118 0 0
rwrist 6.15826 0 0
rhand -23.82 -18.0489 0
rfingers 7.12502 0 0
rthumb 2.66081 -48.1631 0
104
root 7.42018 16.7277 -26.7248 5.2056 9.54001 -4.45224
lfemur -29.519 1.34776 -11.421
ltibia 40.7445 0 0
lfoot -17.9417 -3.15002 0
ltoes 22.7497 0 0
rfemur -28.8894 -4.047 8.01947
rtibia 67.6258 0 0
rfoot 11.5381 8.1459 0
rtoes 10.781 0 0
lowerback 0.420967 2.23663 1.22415
upperback -1.11458 3.00179 1.61047
thorax -1.36123 1.50421 0.953834
lowerneck -10.4554 -4.5652 2.63486
upperneck -2.2611 -6.35068 1.01496
head 0.992108 -3.16234 -0.377058
lclavicle -5.70193e-15 4.15208e-15 0
lhumerus -45.6424 -9.55066 93.1604
lradius 47.6129 0 0
lwrist 13.1916 0 0
lhand 1.89075 6.79285 0
lfingers 7.12502 0 0
lthumb 27.3743 34.5621 0
rclavicle -5.70193e-15 4.15208e-15 0
rhumerus -40.9287 2.30135 -76.9301
rradius 47.752 0 0
rwrist 5.52974 0 0
rhand -23.3921 -17.4282 0
rfingers 7.12502 0 0
rthumb 3.07153 -47.4969 0
105
root 7.4754 16.7295 -26.6862 3.54132 10.8109 -3.79561
lfemur -26.8013 -0.419935 -12.0437
ltibia 39.2072 0 0
lfoot -17.6635 -5.29052 0
ltoes 23.739 0 0
rfemur -34.5786 -4.35556 4.79842
rtibia 77.6533 0 0
rfoot 21.6662 14.6021 0
rtoes 14.5172 0 0
lowerback 1.67694 1.72542 0.513358
upperback -0.739341 2.327 1.81427
thorax -1.71941 1.17245 1.53212
lowerneck -10.535 -4.69108 2.41667
upperneck -1.44142 -6.51261 0.926351
head 1.27036 -3.23179 -0.390861
lclavicle -7.91477e-15 1.37466e-15 0
lhumerus -46.1245 -10.0882 93.5616
lradius 48.3587 0 0
lwrist 14.1043 0 0
lhand 4.87055 7.81993 0
lfingers 7.12502 0 0
lthumb 30.2278 35.1796 0
rclavicle -7.91477e-15 1.37466e-15 0
rhumerus -41.7849 1.81475 -73.3573
rradius 49.0058 0 0
rwrist 4.77066 0 0
rhand -22.8338 -16.6981 0
rfingers 7.12502 0 0
rthumb 3.60755 -46.7079 0
106
root 7.53062 16.7313 -26.6477 1.59258 12.283 -3.03397
lfemur -23.6313 -2.46527 -12.7543
ltibia 37.3992 0 0
lfoot -17.3285 -7.73592 0
ltoes 24.8613 0 0
rfemur -41.2156 -4.75181 1.11259
rtibia 89.2151 0 0
rfoot 33.361 22.0951 0
rtoes 18.775 0 0
lowerback 3.15315 1.13213 -0.317021
upperback -0.297715 1.54298 2.05108
thorax -2.13833 0.786902 2.20754
lowerneck -10.6307 -4.8356 2.16485
upperneck -0.487372 -6.69874 0.822634
head 1.59477 -3.31149 -0.407235
lclavicle -1.05232e-14 -1.78906e-15 0
lhumerus -46.6826 -10.7064 94.0168
lradius 49.2289 0 0
lwrist 15.1652 0 0
lhand 8.32967 9.00768 0
lfingers 7.12502 0 0
lthumb 33.5404 35.8923 0
rclavicle -1.05232e-14 -1.78906e-15 0
rhumerus -42.7698 1.23965 -69.1841
rradius 50.4904 0 0
rwrist 3.87067 0 0
rhand -22.1336 -15.8497 0
rfingers 7.12502 0 0
rthumb 4.27979 -45.7864 0
107
root 7.55364 16.7379 -26.6372 1.19024 12.3592 -2.87229
lfemur -22.9641 -2.50042 -12.9364
ltibia 37.0661 0 0
lfoot -17.2441 -8.04795 0
ltoes 25.1147 0 0
rfemur -42.5078 -5.10119 1.2323
rtibia 89.7271 0 0
rfoot 34.0629 22.9013 0
rtoes 18.3924 0 0
lowerback 3.51011 1.02674 -0.475722
upperback -0.161384 1.39279 2.0557
thorax -2.19542 0.711995 2.3068
lowerneck -10.6689 -4.79445 2.12004
upperneck -0.353249 -6.64261 0.817501
head 1.64612 -3.28161 -0.401112
lclavicle -1.085e-14 -1.73396e-15 0
lhumerus -46.6584 -10.8329 94.0302
lradius 49.3538 0 0
lwrist 15.2552 0 0
lhand 8.66322 9.08099 0
lfingers 7.12502 0 0
lthumb 33.8603 35.9241 0
rclavicle -1.085e-14 -1.73396e-15 0
rhumerus -42.8278 1.01394 -68.4809
rradius 50.8963 0 0
rwrist 3.55777 0 0
rhand -21.4889 -15.754 0
rfingers 7.12502 0 0
rthumb 4.89884 -45.2363 0
108
root 7.57666 16.7444 -26.6267 0.922432 12.4201 -2.77183
lfemur -22.5167 -2.62195 -13.0482
ltibia 36.8239 0 0
lfoot -17.1839 -8.30575 0
ltoes 25.3409 0 0
rfemur -43.3177 -5.25551 1.1366
rtibia 90.2271 0 0
rfoot 34.774 23.5506 0
rtoes 18.37 0 0
lowerback 3.73058 0.96623 -0.570821
upperback -0.0802536 1.30908 2.07236
thorax -2.23763 0.670321 2.3768
lowerneck -10.6913 -4.77829 2.0961
upperneck -0.25278 -6.62079 0.802222
head 1.68276 -3.26959 -0.402722
lclavicle -1.13467e-14 -1.78324e-15 0
lhumerus -46.6843 -10.8702 94.0495
lradius 49.4547 0 0
lwrist 15.348 0 0
lhand 8.90359 9.14424 0
lfingers 7.12502 0 0
lthumb 34.0915 35.9629 0
rclavicle -1.13467e-14 -1.78324e-15 0
rhumerus -42.8572 0.916366 -67.9658
rradius 51.0734 0 0
rwrist 3.37565 0 0
rhand -21.0497 -15.5961 0
rfingers 7.12502 0 0
rthumb 5.32077 -43.95 0
109
root 7.59967 16.751 -26.6163 0.765581 12.4636 -2.72175
lfemur -22.2501 -2.80648 -13.103
ltibia 36.6576 0 0
lfoot -17.1434 -8.51481 0
ltoes 25.545 0 0
rfemur -43.7282 -5.25463 0.881878
rtibia 90.6781 0 0
rfoot 35.4568 24.0551 0
rtoes 18.6179 0 0
lowerback 3.83958 0.943067 -0.613224
upperback -0.0436903 1.28038 2.09801
thorax -2.26696 0.656128 2.42184
lowerneck -10.7012 -4.78123 2.08949
upperneck -0.181397 -6.62525 0.778943
head 1.70694 -3.27133 -0.410498
lclavicle -1.19784e-14 -1.90381e-15 0
lhumerus -46.7484 -10.8343 94.072
lradius 49.5347 0 0
lwrist 15.4404 0 0
lhand 9.0592 9.1956 0
lfingers 7.12502 0 0
lthumb 34.2419 36.0052 0
rclavicle -1.19784e-14 -1.90381e-15 0
rhumerus -42.8601 0.922115 -67.6092
rradius 51.064 0 0
rwrist 3.29869 0 0
rhand -20.7696 -15.3889 0
rfingers 7.12502 0 0
rthumb 5.59002 -42.0515 0
110
root 7.62269 16.7575 -26.6058 0.696119 12.4876 -2.71118
lfemur -22.1257 -3.03057 -13.1138
ltibia 36.5521 0 0
lfoot -17.118 -8.68059 0
ltoes 25.7321 0 0
rfemur -43.8224 -5.13846 0.524503
rtibia 91.0429 0 0
rfoot 36.0736 24.4265 0
rtoes 19.0464 0 0
lowerback 3.86216 0.949706 -0.613843
upperback -0.041062 1.29525 2.12957
thorax -2.28538 0.663667 2.44618
lowerneck -10.7015 -4.79739 2.09668
upperneck -0.13453 -6.64798 0.749811
head 1.7209 -3.2827 -0.422871
lclavicle -1.27103e-14 -2.06256e-15 0
lhumerus -46.839 -10.7407 94.095
lradius 49.5968 0 0
lwrist 15.529 0 0
lhand 9.13844 9.23325 0
lfingers 7.12502 0 0
lthumb 34.3196 36.0472 0
rclavicle -1.27103e-14 -2.06256e-15 0
rhumerus -42.8385 1.00639 -67.3816
rradius 50.9105 0 0
rwrist 3.30129 0 0
rhand -20.6025 -15.145 0
rfingers 7.12502 0 0
rthumb 5.75102 -39.6646 0
111
root 7.64571 16.7641 -26.5953 0.690475 12.4902 -2.72929
lfemur -22.1047 -3.27084 -13.0937
ltibia 36.4924 0 0
lfoot -17.1033 -8.80855 0
ltoes 25.9074 0 0
rfemur -43.6835 -4.94687 0.120853
rtibia 91.2847 0 0
rfoot 36.5869 24.6768 0
rtoes 19.5657 0 0
lowerback 3.82335 0.978602 -0.583584
upperback -0.0617363 1.34222 2.16399
thorax -2.29487 0.687184 2.45412
lowerneck -10.6956 -4.82089 2.11416
upperneck -0.10761 -6.68098 0.716975
head 1.7269 -3.2996 -0.438273
lclavicle -1.35073e-14 -2.2264e-15 0
lhumerus -46.9443 -10.6052 94.1157
lradius 49.6439 0 0
lwrist 15.6107 0 0
lhand 9.14972 9.25536 0
lfingers 7.12502 0 0
lthumb 34.3324 36.0853 0
rclavicle -1.35073e-14 -2.2264e-15 0
rhumerus -42.7945 1.14438 -67.2534
rradius 50.6552 0 0
rwrist 3.35784 0 0
rhand -20.5019 -14.8773 0
rfingers 7.12502 0 0
rthumb 5.84821 -36.913 0
112
root 7.66873 16.7706 -26.5848 0.725079 12.4692 -2.76522
lfemur -22.1483 -3.50387 -13.0557
ltibia 36.4635 0 0
lfoot -17.0946 -8.90417 0
ltoes 26.0761 0 0
rfemur -43.3945 -4.71976 -0.272696
rtibia 91.3664 0 0
rfoot 36.9589 24.8178 0
rtoes 20.0862 0 0
lowerback 3.74818 1.02221 -0.533358
upperback -0.0950807 1.40984 2.19819
thorax -2.29743 0.720929 2.44992
lowerneck -10.6864 -4.84586 2.13839
upperneck -0.0960676 -6.71622 0.682581
head 1.72718 -3.31792 -0.455137
lclavicle -1.43345e-14 -2.36223e-15 0
lhumerus -47.0526 -10.4435 94.1315
lradius 49.6792 0 0
lwrist 15.6822 0 0
lhand 9.10144 9.26009 0
lfingers 7.12502 0 0
lthumb 34.2884 36.1158 0
rclavicle -1.43345e-14 -2.36223e-15 0
rhumerus -42.7299 1.3113 -67.195
rradius 50.3406 0 0
rwrist 3.44274 0 0
rhand -20.4216 -14.5986 0
rfingers 7.12502 0 0
rthumb 5.926 -33.9206 0
113
root 7.69175 16.7772 -26.5743 0.776361 12.4225 -2.80811
lfemur -22.2177 -3.70626 -13.0131
ltibia 36.4504 0 0
lfoot -17.0874 -8.9729 0
ltoes 26.2433 0 0
rfemur -43.0384 -4.49701 -0.59977
rtibia 91.2508 0 0
rfoot 37.1521 24.8613 0
rtoes 20.518 0 0
lowerback 3.66169 1.073 -0.474072
upperback -0.130463 1.48665 2.22912
thorax -2.29502 0.759151 2.43789
lowerneck -10.6773 -4.86642 2.16585
upperneck -0.0953342 -6.74571 0.648776
head 1.72398 -3.33354 -0.471895
lclavicle -1.51569e-14 -2.43695e-15 0
lhumerus -47.1521 -10.2713 94.1396
lradius 49.7056 0 0
lwrist 15.7403 0 0
lhand 9.00201 9.24562 0
lfingers 7.12502 0 0
lthumb 34.1955 36.135 0
rclavicle -1.51569e-14 -2.43695e-15 0
rhumerus -42.647 1.48233 -67.177
rradius 50.009 0 0
rwrist 3.53039 0 0
rhand -20.3153 -14.3216 0
rfingers 7.12502 0 0
rthumb 6.02885 -30.8112 0
114
root 7.71476 16.7838 -26.5639 0.820752 12.3483 -2.84712
lfemur -22.2742 -3.85459 -12.9788
ltibia 36.4381 0 0
lfoot -17.0773 -9.02023 0
ltoes 26.4141 0 0
rfemur -42.6983 -4.31851 -0.803992
rtibia 90.9011 0 0
rfoot 37.1288 24.8193 0
rtoes 20.7714 0 0
lowerback 3.58892 1.12341 -0.416636
upperback -0.15725 1.5612 2.25371
thorax -2.28965 0.796098 2.42228
lowerneck -10.6713 -4.87668 2.193
upperneck -0.100841 -6.76141 0.617709
head 1.71957 -3.34234 -0.486978
lclavicle -1.59397e-14 -2.41746e-15 0
lhumerus -47.231 -10.1044 94.1374
lradius 49.7261 0 0
lwrist 15.7817 0 0
lhand 8.85983 9.21013 0
lfingers 7.12502 0 0
lthumb 34.0617 36.1393 0
rclavicle -1.59397e-14 -2.41746e-15 0
rhumerus -42.5478 1.63267 -67.1697
rradius 49.7028 0 0
rwrist 3.59517 0 0
rhand -20.1365 -14.059 0
rfingers 7.12502 0 0
rthumb 6.20117 -27.7087 0
115
root 7.73778 16.7903 -26.5534 0.834679 12.2443 -2.8714
lfemur -22.279 -3.92547 -12.9659
ltibia 36.4115 0 0
lfoot -17.0597 -9.05162 0
ltoes 26.5937 0 0
rfemur -42.4573 -4.22415 -0.828986
rtibia 90.2802 0 0
rfoot 36.8514 24.7036 0
rtoes 20.7566 0 0
lowerback 3.55491 1.16591 -0.371958
upperback -0.16481 1.62202 2.2689
thorax -2.28329 0.82602 2.40739
lowerneck -10.6715 -4.87077 2.21632
upperneck -0.108017 -6.75533 0.591526
head 1.71618 -3.34023 -0.49882
lclavicle -1.66479e-14 -2.27066e-15 0
lhumerus -47.2776 -9.95853 94.1221
lradius 49.7438 0 0
lwrist 15.8031 0 0
lhand 8.6833 9.15177 0
lfingers 7.12502 0 0
lthumb 33.8949 36.125 0
rclavicle -1.66479e-14 -2.27066e-15 0
rhumerus -42.4342 1.73753 -67.1437
rradius 49.4644 0 0
rwrist 3.61149 0 0
rhand -19.8391 -13.8237 0
rfingers 7.12502 0 0
rthumb 6.4874 -24.7368 0
